<svg width="48" height="49" viewBox="0 0 48 49" fill="none" xmlns="http://www.w3.org/2000/svg">
<g clip-path="url(#clip0_1_226)">
<path fill-rule="evenodd" clip-rule="evenodd" d="M48 24.2976C48 37.5524 37.2548 48.2976 24 48.2976C10.7452 48.2976 0 37.5524 0 24.2976C0 11.0428 10.7452 0.297607 24 0.297607C37.2548 0.297607 48 11.0428 48 24.2976ZM24.8601 18.0155C22.5257 18.9864 17.8603 20.996 10.8638 24.0443C9.72766 24.496 9.13251 24.938 9.07834 25.3702C8.98677 26.1006 9.90142 26.3882 11.1469 26.7799C11.3164 26.8331 11.4919 26.8883 11.6719 26.9468C12.8973 27.3452 14.5457 27.8112 15.4026 27.8297C16.1799 27.8465 17.0475 27.526 18.0053 26.8683C24.5423 22.4556 27.9168 20.2252 28.1286 20.1771C28.2781 20.1432 28.4852 20.1006 28.6255 20.2253C28.7659 20.35 28.7521 20.5862 28.7372 20.6496C28.6466 21.0359 25.0562 24.3738 23.1982 26.1012C22.619 26.6397 22.2081 27.0216 22.1242 27.1089C21.936 27.3043 21.7443 27.4892 21.56 27.6668C20.4215 28.7643 19.5678 29.5872 21.6072 30.9312C22.5873 31.577 23.3715 32.1111 24.1539 32.6439C25.0084 33.2258 25.8606 33.8061 26.9632 34.5289C27.2442 34.7131 27.5125 34.9044 27.7738 35.0907C28.7681 35.7996 29.6615 36.4364 30.7652 36.3349C31.4065 36.2759 32.0689 35.6728 32.4053 33.8743C33.2004 29.6239 34.7633 20.4145 35.1244 16.6196C35.1561 16.2871 35.1163 15.8615 35.0843 15.6748C35.0523 15.488 34.9855 15.2218 34.7427 15.0248C34.4552 14.7915 34.0113 14.7423 33.8127 14.7458C32.91 14.7617 31.5251 15.2432 24.8601 18.0155Z" fill="white"/>
</g>
<defs>
<clipPath id="clip0_1_226">
<rect width="48" height="48" fill="white" transform="translate(0 0.297607)"/>
</clipPath>
</defs>
</svg>
