<svg width="48" height="49" viewBox="0 0 48 49" fill="none" xmlns="http://www.w3.org/2000/svg">
<g clip-path="url(#clip0_1_227)">
<path fill-rule="evenodd" clip-rule="evenodd" d="M3.37413 3.67174C0 7.04587 0 12.4764 0 23.3376V25.2576C0 36.1188 0 41.5493 3.37413 44.9235C6.74826 48.2976 12.1788 48.2976 23.04 48.2976H24.96C35.8212 48.2976 41.2517 48.2976 44.6259 44.9235C48 41.5493 48 36.1188 48 25.2576V23.3376C48 12.4764 48 7.04587 44.6259 3.67174C41.2517 0.297607 35.8212 0.297607 24.96 0.297607H23.04C12.1788 0.297607 6.74826 0.297607 3.37413 3.67174ZM8.10012 14.8977C8.36012 27.3777 14.6001 34.8777 25.5401 34.8777H26.1602V27.7377C30.1802 28.1377 33.22 31.0777 34.44 34.8777H40.1201C38.5601 29.1977 34.4599 26.0577 31.8999 24.8577C34.4599 23.3777 38.0599 19.7777 38.9199 14.8977H33.7598C32.6398 18.8577 29.3202 22.4577 26.1602 22.7977V14.8977H21V28.7377C17.8 27.9377 13.7601 24.0577 13.5801 14.8977H8.10012Z" fill="white"/>
</g>
<defs>
<clipPath id="clip0_1_227">
<rect width="48" height="48" fill="white" transform="translate(0 0.297607)"/>
</clipPath>
</defs>
</svg>
