<svg width="48" height="49" viewBox="0 0 48 49" fill="none" xmlns="http://www.w3.org/2000/svg">
<g clip-path="url(#clip0_1_225)">
<path d="M24 4.61948C30.4125 4.61948 31.1719 4.64761 33.6938 4.76011C36.0375 4.86323 37.3031 5.25698 38.1469 5.58511C39.2625 6.01636 40.0688 6.54136 40.9031 7.37573C41.7469 8.21948 42.2625 9.01636 42.6938 10.132C43.0219 10.9757 43.4156 12.2507 43.5188 14.5851C43.6313 17.1164 43.6594 17.8757 43.6594 24.2789C43.6594 30.6914 43.6313 31.4507 43.5188 33.9726C43.4156 36.3164 43.0219 37.582 42.6938 38.4257C42.2625 39.5414 41.7375 40.3476 40.9031 41.182C40.0594 42.0257 39.2625 42.5414 38.1469 42.9726C37.3031 43.3007 36.0281 43.6945 33.6938 43.7976C31.1625 43.9101 30.4031 43.9382 24 43.9382C17.5875 43.9382 16.8281 43.9101 14.3063 43.7976C11.9625 43.6945 10.6969 43.3007 9.85313 42.9726C8.7375 42.5414 7.93125 42.0164 7.09688 41.182C6.25313 40.3382 5.7375 39.5414 5.30625 38.4257C4.97813 37.582 4.58438 36.307 4.48125 33.9726C4.36875 31.4414 4.34063 30.682 4.34063 24.2789C4.34063 17.8664 4.36875 17.107 4.48125 14.5851C4.58438 12.2414 4.97813 10.9757 5.30625 10.132C5.7375 9.01636 6.2625 8.21011 7.09688 7.37573C7.94063 6.53198 8.7375 6.01636 9.85313 5.58511C10.6969 5.25698 11.9719 4.86323 14.3063 4.76011C16.8281 4.64761 17.5875 4.61948 24 4.61948ZM24 0.297607C17.4844 0.297607 16.6688 0.325732 14.1094 0.438232C11.5594 0.550732 9.80625 0.963232 8.2875 1.55386C6.70312 2.17261 5.3625 2.98823 4.03125 4.32886C2.69063 5.66011 1.875 7.00073 1.25625 8.57573C0.665625 10.1039 0.253125 11.8476 0.140625 14.3976C0.028125 16.9664 0 17.782 0 24.2976C0 30.8132 0.028125 31.6289 0.140625 34.1882C0.253125 36.7382 0.665625 38.4914 1.25625 40.0101C1.875 41.5945 2.69063 42.9351 4.03125 44.2664C5.3625 45.5976 6.70313 46.4226 8.27813 47.032C9.80625 47.6226 11.55 48.0351 14.1 48.1476C16.6594 48.2601 17.475 48.2882 23.9906 48.2882C30.5063 48.2882 31.3219 48.2601 33.8813 48.1476C36.4313 48.0351 38.1844 47.6226 39.7031 47.032C41.2781 46.4226 42.6188 45.5976 43.95 44.2664C45.2812 42.9351 46.1063 41.5945 46.7156 40.0195C47.3063 38.4914 47.7188 36.7476 47.8313 34.1976C47.9438 31.6382 47.9719 30.8226 47.9719 24.307C47.9719 17.7914 47.9438 16.9757 47.8313 14.4164C47.7188 11.8664 47.3063 10.1132 46.7156 8.59448C46.125 7.00073 45.3094 5.66011 43.9688 4.32886C42.6375 2.99761 41.2969 2.17261 39.7219 1.56323C38.1938 0.972607 36.45 0.560107 33.9 0.447607C31.3313 0.325732 30.5156 0.297607 24 0.297607Z" fill="white"/>
<path d="M24 11.9695C17.1938 11.9695 11.6719 17.4914 11.6719 24.2976C11.6719 31.1039 17.1938 36.6257 24 36.6257C30.8062 36.6257 36.3281 31.1039 36.3281 24.2976C36.3281 17.4914 30.8062 11.9695 24 11.9695ZM24 32.2945C19.5844 32.2945 16.0031 28.7132 16.0031 24.2976C16.0031 19.882 19.5844 16.3007 24 16.3007C28.4156 16.3007 31.9969 19.882 31.9969 24.2976C31.9969 28.7132 28.4156 32.2945 24 32.2945Z" fill="white"/>
<path d="M39.6937 11.4819C39.6937 13.0756 38.4 14.36 36.8156 14.36C35.2219 14.36 33.9375 13.0663 33.9375 11.4819C33.9375 9.88814 35.2313 8.60376 36.8156 8.60376C38.4 8.60376 39.6937 9.89751 39.6937 11.4819Z" fill="white"/>
</g>
<defs>
<clipPath id="clip0_1_225">
<rect width="48" height="48" fill="white" transform="translate(0 0.297607)"/>
</clipPath>
</defs>
</svg>
